<?xml version="1.0" encoding="UTF-8" standalone="no"?>
<!-- Created with Inkscape (http://www.inkscape.org/) -->

<svg
   width="200"
   height="200"
   viewBox="0 0 200 200"
   version="1.1"
   id="svg4386"
   inkscape:version="1.2.2 (b0a8486541, 2022-12-01)"
   sodipodi:docname="hour_hand-lines.svg"
   xmlns:inkscape="http://www.inkscape.org/namespaces/inkscape"
   xmlns:sodipodi="http://sodipodi.sourceforge.net/DTD/sodipodi-0.dtd"
   xmlns="http://www.w3.org/2000/svg"
   xmlns:svg="http://www.w3.org/2000/svg">
  <sodipodi:namedview
     id="namedview4388"
     pagecolor="#ffffff"
     bordercolor="#666666"
     borderopacity="1.0"
     inkscape:showpageshadow="2"
     inkscape:pageopacity="0.0"
     inkscape:pagecheckerboard="0"
     inkscape:deskcolor="#d1d1d1"
     inkscape:document-units="px"
     showgrid="true"
     shape-rendering="crispEdges"
     showguides="true"
     inkscape:lockguides="false"
     inkscape:zoom="39.402823"
     inkscape:cx="139.02557"
     inkscape:cy="99.256848"
     inkscape:window-width="1920"
     inkscape:window-height="1011"
     inkscape:window-x="0"
     inkscape:window-y="32"
     inkscape:window-maximized="1"
     inkscape:current-layer="layer1">
    <inkscape:grid
       type="xygrid"
       id="grid4390"
       spacingx="1"
       spacingy="1"
       color="#0000ff"
       opacity="0.35686275"
       dotted="true"
       snapvisiblegridlinesonly="true"
       originx="0"
       originy="0"
       empspacing="10"
       empcolor="#0000ff"
       empopacity="0.49803922" />
    <sodipodi:guide
       position="100,120"
       orientation="1,0"
       id="guide4408"
       inkscape:locked="false" />
    <sodipodi:guide
       position="60,100"
       orientation="0,-1"
       id="guide5136"
       inkscape:locked="false" />
  </sodipodi:namedview>
  <defs
     id="defs4383">
    <inkscape:path-effect
       effect="powerstroke"
       id="path-effect5174"
       is_visible="true"
       lpeversion="1"
       offset_points="0,0"
       not_jump="false"
       sort_points="true"
       interpolator_type="CubicBezierJohan"
       interpolator_beta="0.2"
       start_linecap_type="zerowidth"
       linejoin_type="extrp_arc"
       miter_limit="4"
       scale_width="1"
       end_linecap_type="zerowidth" />
    <inkscape:path-effect
       effect="powerstroke"
       id="path-effect243"
       is_visible="true"
       lpeversion="1"
       offset_points="0,0"
       not_jump="false"
       sort_points="true"
       interpolator_type="CubicBezierJohan"
       interpolator_beta="0.2"
       start_linecap_type="zerowidth"
       linejoin_type="extrp_arc"
       miter_limit="4"
       scale_width="1"
       end_linecap_type="zerowidth" />
  </defs>
  <g
     inkscape:label="Layer 1"
     inkscape:groupmode="layer"
     id="layer1"
     style="display:inline">
    <path
       style="fill:#000000;fill-rule:nonzero;stroke:#000000;stroke-width:1px;stroke-linecap:butt;stroke-linejoin:miter;stroke-opacity:0.810741"
       d="m 140,98 c -16.78063,0 -36.25847,0 -58,0 0,-0.616632 0,-1.286071 0,-1.999998 C 99.739897,96 118.46082,96 137.99999,96 138,92.783266 138,89.44234 138,86 c 3.89923,3.249358 7.90689,6.589077 12,10 7.85615,1.309359 15.86969,2.644948 23.99998,3.999996 C 166.09785,101.31702 158.08541,102.65243 150,104 c -3.97069,3.30891 -7.97658,6.64715 -12,10 0,-3.32377 0,-6.66188 0,-10 -18.69345,0 -37.38691,0 -56,0 0,-0.67057 0,-1.33822 0,-2 19.53975,0 38.90314,0 58,0 0,2.37134 0,4.70862 0,7 3.41092,-2.72874 6.75064,-5.40051 10,-8 3.44234,-0.34423 6.78327,-0.67833 10,-1 -3.48914,-0.348914 -6.83216,-0.683216 -10,-1 -3.56964,-2.855715 -6.91684,-5.53347 -10,-8 0,2.623977 0,4.974752 0,7 z m 0,0 c 0,-2.025248 0,-4.376023 0,-7 3.08316,2.46653 6.43036,5.144285 9.99999,7.999994 3.16785,0.31679 6.51087,0.651092 10.00001,1.000006 -3.21673,0.32167 -6.55766,0.65577 -10,1 -3.24936,2.59949 -6.58908,5.27126 -10,8 0,-2.29138 0,-4.62866 0,-6.99999 C 120.90314,102 101.53975,102 82,102 c 0,0.66178 0,1.32943 0,2 18.61309,0 37.30655,0 56,0 0,3.33812 0,6.67623 0,10 4.02342,-3.35285 8.02931,-6.69109 12,-10 8.08541,-1.34757 16.09785,-2.68298 24,-4 -8.13031,-1.355052 -16.14385,-2.690641 -24,-4 -4.09311,-3.410923 -8.10077,-6.750642 -12,-10 0,3.44234 0,6.783266 0,10.000002 C 118.46082,96 99.739897,96 82,96 c 0,0.713929 0,1.383368 0,2 21.74153,0 41.21937,0 58,0 z"
       id="hour_hand"
       inkscape:path-effect="#path-effect5174"
       inkscape:original-d="M 140,98 H 82 v -2 h 56 V 86 l 12,10 24,4 -24,4 -12,10 V 104 H 82 v -2 h 58 v 7 l 10,-8 10,-1 -10,-1 -10,-8 z"
       sodipodi:nodetypes="ccccccccccccccccccc" />
  </g>
</svg>
