<?xml version="1.0" encoding="UTF-8" standalone="no"?>
<!-- Created with Inkscape (http://www.inkscape.org/) -->

<svg
   width="200"
   height="200"
   viewBox="0 0 200 200"
   version="1.1"
   id="svg4386"
   inkscape:version="1.2.2 (b0a8486541, 2022-12-01)"
   sodipodi:docname="hour_hand-lines.svg"
   xmlns:inkscape="http://www.inkscape.org/namespaces/inkscape"
   xmlns:sodipodi="http://sodipodi.sourceforge.net/DTD/sodipodi-0.dtd"
   xmlns="http://www.w3.org/2000/svg"
   xmlns:svg="http://www.w3.org/2000/svg">
  <sodipodi:namedview
     id="namedview4388"
     pagecolor="#ffffff"
     bordercolor="#666666"
     borderopacity="1.0"
     inkscape:showpageshadow="2"
     inkscape:pageopacity="0.0"
     inkscape:pagecheckerboard="0"
     inkscape:deskcolor="#d1d1d1"
     inkscape:document-units="px"
     showgrid="true"
     shape-rendering="crispEdges"
     showguides="true"
     inkscape:lockguides="false"
     inkscape:zoom="14.10725"
     inkscape:cx="138.86477"
     inkscape:cy="104.98148"
     inkscape:window-width="1920"
     inkscape:window-height="1011"
     inkscape:window-x="0"
     inkscape:window-y="32"
     inkscape:window-maximized="1"
     inkscape:current-layer="layer1">
    <inkscape:grid
       type="xygrid"
       id="grid4390"
       spacingx="1"
       spacingy="1"
       color="#0000ff"
       opacity="0.35686275"
       dotted="true"
       snapvisiblegridlinesonly="true"
       originx="0"
       originy="0"
       empspacing="10"
       empcolor="#0000ff"
       empopacity="0.49803922" />
    <sodipodi:guide
       position="100,120"
       orientation="1,0"
       id="guide4408"
       inkscape:locked="false" />
    <sodipodi:guide
       position="60,100"
       orientation="0,-1"
       id="guide5136"
       inkscape:locked="false" />
  </sodipodi:namedview>
  <defs
     id="defs4383">
    <inkscape:path-effect
       effect="powerstroke"
       id="path-effect5174"
       is_visible="true"
       lpeversion="1"
       offset_points="0,0"
       not_jump="false"
       sort_points="true"
       interpolator_type="CubicBezierJohan"
       interpolator_beta="0.2"
       start_linecap_type="zerowidth"
       linejoin_type="extrp_arc"
       miter_limit="4"
       scale_width="1"
       end_linecap_type="zerowidth" />
    <inkscape:path-effect
       effect="powerstroke"
       id="path-effect243"
       is_visible="true"
       lpeversion="1"
       offset_points="0,0"
       not_jump="false"
       sort_points="true"
       interpolator_type="CubicBezierJohan"
       interpolator_beta="0.2"
       start_linecap_type="zerowidth"
       linejoin_type="extrp_arc"
       miter_limit="4"
       scale_width="1"
       end_linecap_type="zerowidth" />
  </defs>
  <g
     inkscape:label="Layer 1"
     inkscape:groupmode="layer"
     id="layer1"
     style="display:inline">
    <path
       style="fill:#000000;fill-rule:nonzero;stroke:#000000;stroke-width:1px;stroke-linecap:butt;stroke-linejoin:miter;stroke-opacity:0.810741"
       d="m 131,99 c -14.17674,0 -30.63216,0 -49,0 0,-0.616632 0,-1.286071 0,-1.999998 C 96.888842,97 112.60105,97 128.99999,97 129,93.461593 129,89.786574 129,86 c 3.89923,3.249358 7.90689,6.589077 12,10 6.21945,1.309359 12.5635,2.644948 18.99998,3.999996 C 153.74413,101.31702 147.40095,102.65243 141,104 c -3.97069,3.30891 -7.97658,6.64715 -12,10 0,-3.65614 0,-7.32807 0,-11 -15.68915,0 -31.378298,0 -47,0 0,-0.67057 0,-1.33822 0,-2 16.507719,0 32.86644,0 49,0 0,2.7101 0,5.38128 0,8 3.41092,-2.72874 6.75064,-5.40051 10,-8 1.72117,-0.34423 3.39163,-0.67833 5,-1 -1.74457,-0.348914 -3.41608,-0.683216 -5,-1 -3.56964,-2.855715 -6.91684,-5.53347 -10,-8 0,2.998831 0,5.685431 0,8 z m 0,0 c 0,-2.314569 0,-5.001169 0,-8 3.08316,2.46653 6.43036,5.144285 9.99999,7.999994 1.58393,0.31679 3.25544,0.651092 5.00001,1.000006 -1.60837,0.32167 -3.27883,0.65577 -5,1 -3.24936,2.59949 -6.58908,5.27126 -10,8 0,-2.61872 0,-5.2899 0,-7.99999 C 114.86644,101 98.507719,101 82,101 c 0,0.66178 0,1.32943 0,2 15.621702,0 31.31085,0 47,0 0,3.67193 0,7.34386 0,11 4.02342,-3.35285 8.02931,-6.69109 12,-10 6.40095,-1.34757 12.74413,-2.68298 19,-4 -6.4365,-1.355052 -12.78055,-2.690641 -19,-4 -4.09311,-3.410923 -8.10077,-6.750642 -12,-10 0,3.786574 0,7.461593 0,11.000002 C 112.60105,97 96.888842,97 82,97 c 0,0.713929 0,1.383368 0,2 18.36784,0 34.82326,0 49,0 z"
       id="hour_hand"
       inkscape:path-effect="#path-effect5174"
       inkscape:original-d="M 131,99 H 82 v -2 h 47 V 86 l 12,10 19,4 -19,4 -12,10 V 103 H 82 v -2 h 49 v 8 l 10,-8 5,-1 -5,-1 -10,-8 z"
       sodipodi:nodetypes="ccccccccccccccccccc" />
  </g>
</svg>
