<?xml version="1.0" encoding="UTF-8" standalone="no"?>
<!-- Created with Inkscape (http://www.inkscape.org/) -->

<svg
   width="200"
   height="200"
   viewBox="0 0 200 200"
   version="1.1"
   id="svg4386"
   inkscape:version="1.2.2 (b0a8486541, 2022-12-01)"
   sodipodi:docname="hour_hand.svg"
   xmlns:inkscape="http://www.inkscape.org/namespaces/inkscape"
   xmlns:sodipodi="http://sodipodi.sourceforge.net/DTD/sodipodi-0.dtd"
   xmlns="http://www.w3.org/2000/svg"
   xmlns:svg="http://www.w3.org/2000/svg">
  <sodipodi:namedview
     id="namedview4388"
     pagecolor="#ffffff"
     bordercolor="#666666"
     borderopacity="1.0"
     inkscape:showpageshadow="2"
     inkscape:pageopacity="0.0"
     inkscape:pagecheckerboard="0"
     inkscape:deskcolor="#d1d1d1"
     inkscape:document-units="px"
     showgrid="true"
     shape-rendering="crispEdges"
     showguides="true"
     inkscape:lockguides="false"
     inkscape:zoom="3.98"
     inkscape:cx="100"
     inkscape:cy="100"
     inkscape:window-width="1920"
     inkscape:window-height="1011"
     inkscape:window-x="0"
     inkscape:window-y="32"
     inkscape:window-maximized="1"
     inkscape:current-layer="layer1">
    <inkscape:grid
       type="xygrid"
       id="grid4390"
       spacingx="1"
       spacingy="1"
       color="#0000ff"
       opacity="0.35686275"
       dotted="false"
       snapvisiblegridlinesonly="true"
       originx="0"
       originy="0"
       empspacing="10"
       empcolor="#0000ff"
       empopacity="0.49803922" />
    <sodipodi:guide
       position="100,120"
       orientation="1,0"
       id="guide4408"
       inkscape:locked="false" />
    <sodipodi:guide
       position="60,100"
       orientation="0,-1"
       id="guide5136"
       inkscape:locked="false" />
  </sodipodi:namedview>
  <defs
     id="defs4383">
    <inkscape:path-effect
       effect="powerstroke"
       id="path-effect5174"
       is_visible="true"
       lpeversion="1"
       offset_points="0,0"
       not_jump="false"
       sort_points="true"
       interpolator_type="CubicBezierJohan"
       interpolator_beta="0.2"
       start_linecap_type="zerowidth"
       linejoin_type="extrp_arc"
       miter_limit="4"
       scale_width="1"
       end_linecap_type="zerowidth" />
    <inkscape:path-effect
       effect="powerstroke"
       id="path-effect243"
       is_visible="true"
       lpeversion="1"
       offset_points="0,0"
       not_jump="false"
       sort_points="true"
       interpolator_type="CubicBezierJohan"
       interpolator_beta="0.2"
       start_linecap_type="zerowidth"
       linejoin_type="extrp_arc"
       miter_limit="4"
       scale_width="1"
       end_linecap_type="zerowidth" />
  </defs>
  <g
     inkscape:label="Layer 1"
     inkscape:groupmode="layer"
     id="layer1"
     style="display:inline">
    <path
       style="fill:#000000;fill-rule:nonzero;stroke:#000000;stroke-width:1px;stroke-linecap:butt;stroke-linejoin:miter;stroke-opacity:0.810741"
       d="m 83,100 c 1.875644,-1.071797 4.253866,-2.430781 7,-4 14.62281,0 30.76694,0 47.99998,0 2e-5,-3.176543 2e-5,-6.530674 2e-5,-10 3.89924,3.24937 7.91975,6.599789 11.99999,9.999994 C 157.92488,97.320813 165.96244,98.660406 174,100 c -8.03756,1.33959 -16.07512,2.67919 -24,4 -4.08025,3.40021 -8.10076,6.75063 -12,10 0,-3.46933 0,-6.82346 0,-10 -17.23306,0 -33.37719,0 -48,0 -2.746134,-1.56922 -5.124356,-2.9282 -7,-4 z m 0,0 c 1.875644,1.0718 4.253866,2.43078 7,4 14.62281,0 30.76694,0 47.99998,0 2e-5,3.17654 2e-5,6.53067 2e-5,10 3.89924,-3.24937 7.91975,-6.59979 11.99999,-9.99999 C 157.92488,102.67919 165.96244,101.33959 174,100 c -8.03756,-1.339594 -16.07512,-2.679187 -24,-4 -4.08025,-3.400211 -8.10076,-6.75063 -12,-10 0,3.469326 0,6.823457 0,10 -17.23306,0 -33.37719,0 -48,0 -2.746134,1.569219 -5.124356,2.928203 -7,4 z"
       id="hour_hand"
       inkscape:path-effect="#path-effect5174"
       inkscape:original-d="m 83,100 7,-4 h 48 V 86 l 12,10 24,4 -24,4 -12,10 V 104 H 90 Z"
       sodipodi:nodetypes="ccccccccccc" />
  </g>
</svg>
