<?xml version="1.0" encoding="UTF-8" standalone="no"?>
<!-- Created with Inkscape (http://www.inkscape.org/) -->

<svg
   width="200"
   height="200"
   viewBox="0 0 200 200"
   version="1.1"
   id="svg4386"
   inkscape:version="1.2.2 (b0a8486541, 2022-12-01)"
   sodipodi:docname="hour_hand.svg"
   xmlns:inkscape="http://www.inkscape.org/namespaces/inkscape"
   xmlns:sodipodi="http://sodipodi.sourceforge.net/DTD/sodipodi-0.dtd"
   xmlns="http://www.w3.org/2000/svg"
   xmlns:svg="http://www.w3.org/2000/svg">
  <sodipodi:namedview
     id="namedview4388"
     pagecolor="#ffffff"
     bordercolor="#666666"
     borderopacity="1.0"
     inkscape:showpageshadow="2"
     inkscape:pageopacity="0.0"
     inkscape:pagecheckerboard="0"
     inkscape:deskcolor="#d1d1d1"
     inkscape:document-units="px"
     showgrid="true"
     shape-rendering="crispEdges"
     showguides="true"
     inkscape:lockguides="false"
     inkscape:zoom="8.6775897"
     inkscape:cx="129.0681"
     inkscape:cy="103.48496"
     inkscape:window-width="1920"
     inkscape:window-height="1011"
     inkscape:window-x="0"
     inkscape:window-y="32"
     inkscape:window-maximized="1"
     inkscape:current-layer="layer1">
    <inkscape:grid
       type="xygrid"
       id="grid4390"
       spacingx="2"
       spacingy="2"
       color="#0000ff"
       opacity="0.35686275"
       dotted="false"
       snapvisiblegridlinesonly="true"
       originx="0"
       originy="0"
       empspacing="10"
       empcolor="#0000ff"
       empopacity="0.49803922" />
    <sodipodi:guide
       position="100,120"
       orientation="1,0"
       id="guide4408"
       inkscape:locked="false" />
    <sodipodi:guide
       position="60,100"
       orientation="0,-1"
       id="guide5136"
       inkscape:locked="false" />
  </sodipodi:namedview>
  <defs
     id="defs4383">
    <inkscape:path-effect
       effect="powerstroke"
       id="path-effect5174"
       is_visible="true"
       lpeversion="1"
       offset_points="0,0"
       not_jump="false"
       sort_points="true"
       interpolator_type="CubicBezierJohan"
       interpolator_beta="0.2"
       start_linecap_type="zerowidth"
       linejoin_type="extrp_arc"
       miter_limit="4"
       scale_width="1"
       end_linecap_type="zerowidth" />
    <inkscape:path-effect
       effect="powerstroke"
       id="path-effect243"
       is_visible="true"
       lpeversion="1"
       offset_points="0,0"
       not_jump="false"
       sort_points="true"
       interpolator_type="CubicBezierJohan"
       interpolator_beta="0.2"
       start_linecap_type="zerowidth"
       linejoin_type="extrp_arc"
       miter_limit="4"
       scale_width="1"
       end_linecap_type="zerowidth" />
  </defs>
  <g
     inkscape:label="Layer 1"
     inkscape:groupmode="layer"
     id="layer1"
     style="display:inline">
    <path
       style="fill:#000000;fill-rule:nonzero;stroke:#000000;stroke-width:1px;stroke-linecap:butt;stroke-linejoin:miter;stroke-opacity:0.810741"
       d="m 98,100 c 0.535898,-1.071797 1.21539,-2.430781 2,-4 11.57639,0 24.35716,0 37.99998,0 2e-5,-3.176543 2e-5,-6.530674 2e-5,-10 3.89924,0 7.91975,0 11.99999,0 6.60407,4.622845 13.30204,9.311423 20.00001,14 -6.69797,4.68858 -13.39594,9.37715 -20,14 -4.08025,0 -8.10076,0 -12,0 0,-3.46933 0,-6.82346 0,-10 -13.64284,0 -26.42361,0 -38,0 -0.78461,-1.56922 -1.464102,-2.9282 -2,-4 z m 0,0 c 0.535898,1.0718 1.21539,2.43078 2,4 11.57639,0 24.35716,0 37.99998,0 2e-5,3.17654 2e-5,6.53067 2e-5,10 3.89924,0 7.91975,0 11.99999,0 6.60407,-4.62285 13.30204,-9.31142 20.00001,-14 -6.69797,-4.688577 -13.39594,-9.377155 -20,-14 -4.08025,0 -8.10076,0 -12,0 0,3.469326 0,6.823457 0,10 -13.64284,0 -26.42361,0 -38,0 -0.78461,1.569219 -1.464102,2.928203 -2,4 z"
       id="hour_hand"
       inkscape:path-effect="#path-effect5174"
       inkscape:original-d="m 98,100 2,-4 h 38 V 86 h 12 l 20,14 -20,14 h -12 v -10 h -38 z"
       sodipodi:nodetypes="ccccccccccc" />
  </g>
</svg>
