<?xml version="1.0" encoding="UTF-8" standalone="no"?>
<!-- Created with Inkscape (http://www.inkscape.org/) -->

<svg
   width="200"
   height="200"
   viewBox="0 0 200 200"
   version="1.1"
   id="svg4386"
   inkscape:version="1.2.2 (b0a8486541, 2022-12-01)"
   sodipodi:docname="minute_hand.svg"
   xmlns:inkscape="http://www.inkscape.org/namespaces/inkscape"
   xmlns:sodipodi="http://sodipodi.sourceforge.net/DTD/sodipodi-0.dtd"
   xmlns="http://www.w3.org/2000/svg"
   xmlns:svg="http://www.w3.org/2000/svg">
  <sodipodi:namedview
     id="namedview4388"
     pagecolor="#ffffff"
     bordercolor="#666666"
     borderopacity="1.0"
     inkscape:showpageshadow="2"
     inkscape:pageopacity="0.0"
     inkscape:pagecheckerboard="0"
     inkscape:deskcolor="#d1d1d1"
     inkscape:document-units="px"
     showgrid="true"
     shape-rendering="crispEdges"
     showguides="true"
     inkscape:lockguides="false"
     inkscape:zoom="31.84"
     inkscape:cx="94.943467"
     inkscape:cy="100.21985"
     inkscape:window-width="1920"
     inkscape:window-height="1011"
     inkscape:window-x="0"
     inkscape:window-y="32"
     inkscape:window-maximized="1"
     inkscape:current-layer="layer1">
    <inkscape:grid
       type="xygrid"
       id="grid4390"
       spacingx="1"
       spacingy="1"
       color="#0000ff"
       opacity="0.35686275"
       dotted="false"
       snapvisiblegridlinesonly="true"
       originx="0"
       originy="0"
       empspacing="10"
       empcolor="#0000ff"
       empopacity="0.49803922" />
    <sodipodi:guide
       position="100,96"
       orientation="1,0"
       id="guide4408"
       inkscape:locked="false" />
    <sodipodi:guide
       position="190,100"
       orientation="0,-1"
       id="guide5136"
       inkscape:locked="false" />
  </sodipodi:namedview>
  <defs
     id="defs4383">
    <inkscape:path-effect
       effect="powerstroke"
       id="path-effect5174"
       is_visible="true"
       lpeversion="1"
       offset_points="0,0"
       not_jump="false"
       sort_points="true"
       interpolator_type="CubicBezierJohan"
       interpolator_beta="0.2"
       start_linecap_type="zerowidth"
       linejoin_type="extrp_arc"
       miter_limit="4"
       scale_width="1"
       end_linecap_type="zerowidth" />
    <inkscape:path-effect
       effect="powerstroke"
       id="path-effect243"
       is_visible="true"
       lpeversion="1"
       offset_points="0,0"
       not_jump="false"
       sort_points="true"
       interpolator_type="CubicBezierJohan"
       interpolator_beta="0.2"
       start_linecap_type="zerowidth"
       linejoin_type="extrp_arc"
       miter_limit="4"
       scale_width="1"
       end_linecap_type="zerowidth" />
  </defs>
  <g
     inkscape:label="Layer 1"
     inkscape:groupmode="layer"
     id="layer1"
     style="display:inline">
    <path
       style="fill:#000000;fill-rule:nonzero;stroke:#000000;stroke-width:1px;stroke-linecap:butt;stroke-linejoin:miter;stroke-opacity:0.810741"
       d="m 83,100 c 1.875644,-0.803848 4.253866,-1.823085 7,-3 20.71565,0 43.5865,0 67.99996,0 4e-5,-1.905926 4e-5,-3.918405 4e-5,-6 3.89924,1.949622 7.91975,3.959874 11.99999,5.999996 C 177.26447,97.99061 184.63224,98.995305 192,100 c -7.36776,1.0047 -14.73553,2.00939 -22,3 -4.08025,2.04013 -8.10076,4.05038 -12,6 0,-2.0816 0,-4.09407 0,-6 -24.4135,0 -47.28435,0 -68,0 -2.746134,-1.17691 -5.124356,-2.19615 -7,-3 z m 0,0 c 1.875644,0.80385 4.253866,1.82309 7,3 20.71565,0 43.5865,0 67.99996,0 4e-5,1.90593 4e-5,3.9184 4e-5,6 3.89924,-1.94962 7.91975,-3.95987 11.99999,-6 7.26448,-0.99061 14.63225,-1.9953 22.00001,-3 -7.36776,-1.004695 -14.73553,-2.00939 -22,-3 -4.08025,-2.040126 -8.10076,-4.050378 -12,-6 0,2.081595 0,4.094074 0,6 -24.4135,0 -47.28435,0 -68,0 -2.746134,1.176915 -5.124356,2.196152 -7,3 z"
       id="minute_hand"
       inkscape:path-effect="#path-effect5174"
       inkscape:original-d="m 83,100 7,-3 h 68 v -6 l 12,6 22,3 -22,3 -12,6 v -6 H 90 Z"
       sodipodi:nodetypes="ccccccccccc"
       inkscape:label="minute_hand" />
  </g>
</svg>
