<?xml version="1.0" encoding="UTF-8" standalone="no"?>
<!-- Created with Inkscape (http://www.inkscape.org/) -->

<svg
   width="200"
   height="200"
   viewBox="0 0 200 200"
   version="1.1"
   id="svg4386"
   inkscape:version="1.2.2 (b0a8486541, 2022-12-01)"
   sodipodi:docname="minute_hand-lines.svg"
   xmlns:inkscape="http://www.inkscape.org/namespaces/inkscape"
   xmlns:sodipodi="http://sodipodi.sourceforge.net/DTD/sodipodi-0.dtd"
   xmlns="http://www.w3.org/2000/svg"
   xmlns:svg="http://www.w3.org/2000/svg">
  <sodipodi:namedview
     id="namedview4388"
     pagecolor="#ffffff"
     bordercolor="#666666"
     borderopacity="1.0"
     inkscape:showpageshadow="2"
     inkscape:pageopacity="0.0"
     inkscape:pagecheckerboard="0"
     inkscape:deskcolor="#d1d1d1"
     inkscape:document-units="px"
     showgrid="true"
     shape-rendering="crispEdges"
     showguides="true"
     inkscape:lockguides="false"
     inkscape:zoom="35.566802"
     inkscape:cx="97.141149"
     inkscape:cy="100.62755"
     inkscape:window-width="1920"
     inkscape:window-height="1011"
     inkscape:window-x="0"
     inkscape:window-y="32"
     inkscape:window-maximized="1"
     inkscape:current-layer="layer1">
    <inkscape:grid
       type="xygrid"
       id="grid4390"
       spacingx="1"
       spacingy="1"
       color="#0000ff"
       opacity="0.35686275"
       dotted="true"
       snapvisiblegridlinesonly="true"
       originx="0"
       originy="0"
       empspacing="10"
       empcolor="#0000ff"
       empopacity="0.49803922" />
    <sodipodi:guide
       position="100,96"
       orientation="1,0"
       id="guide4408"
       inkscape:locked="false" />
    <sodipodi:guide
       position="190,100"
       orientation="0,-1"
       id="guide5136"
       inkscape:locked="false" />
  </sodipodi:namedview>
  <defs
     id="defs4383">
    <inkscape:path-effect
       effect="powerstroke"
       id="path-effect5174"
       is_visible="true"
       lpeversion="1"
       offset_points="0,0"
       not_jump="false"
       sort_points="true"
       interpolator_type="CubicBezierJohan"
       interpolator_beta="0.2"
       start_linecap_type="zerowidth"
       linejoin_type="extrp_arc"
       miter_limit="4"
       scale_width="1"
       end_linecap_type="zerowidth" />
    <inkscape:path-effect
       effect="powerstroke"
       id="path-effect243"
       is_visible="true"
       lpeversion="1"
       offset_points="0,0"
       not_jump="false"
       sort_points="true"
       interpolator_type="CubicBezierJohan"
       interpolator_beta="0.2"
       start_linecap_type="zerowidth"
       linejoin_type="extrp_arc"
       miter_limit="4"
       scale_width="1"
       end_linecap_type="zerowidth" />
  </defs>
  <g
     inkscape:label="Layer 1"
     inkscape:groupmode="layer"
     id="layer1"
     style="display:inline">
    <path
       style="fill:none;fill-rule:nonzero;stroke:#000000;stroke-width:1px;stroke-linecap:butt;stroke-linejoin:miter;stroke-opacity:0.810741"
       d="m 85,97 c 21.12045,0 45.63566,0 73,0 0,-1.849897 0,-3.858214 0,-5.999995 3.80141,1.900698 7.81303,3.906511 12,5.999994 7.07681,0.965021 14.42685,1.967299 22,3.000001 -7.14859,0.97481 -14.49597,1.97672 -22,3 -3.92808,1.96404 -7.93484,3.96742 -11.99999,5.99999 C 158,107.02446 158,105.02135 158,103 c -24.15504,0 -48.52422,0 -73.000001,0 C 85,102.33525 85,101.66762 85,101 c 25.03588,0 50.07175,0 75,0 0,0.67057 0,1.33822 0,2 3.36892,-0.67378 6.70744,-1.34149 10,-2 2.7101,-0.33876 5.38128,-0.67266 8,-1 -2.72874,-0.341092 -5.40051,-0.675064 -8,-1 -3.44234,-0.688468 -6.78327,-1.356653 -10,-2 0,0.697828 0,1.366432 0,2 -26.77232,0 -51.87628,0 -75,0 0,-0.749708 0,-1.421358 0,-2 z m 0,0 c 0,0.578642 0,1.250292 0,2 23.12372,0 48.22768,0 74.99994,0 6e-5,-0.633568 6e-5,-1.302172 6e-5,-2 3.21673,0.643347 6.55766,1.311532 10,2 2.59949,0.324936 5.27126,0.658908 8,1 -2.61872,0.32734 -5.2899,0.66124 -7.99999,1 -3.29257,0.65851 -6.63109,1.32622 -10.00001,2 0,-0.66178 0,-1.32943 0,-2 -24.92825,0 -49.96412,0 -75,0 0,0.66762 0,1.33525 0,2 24.47578,0 48.84496,0 73,0 0,2.02135 0,4.02446 0,6 4.06516,-2.03258 8.07192,-4.03596 12,-6 7.50403,-1.02328 14.85141,-2.02519 22,-3 -7.57315,-1.032702 -14.92319,-2.03498 -22,-3.000001 C 165.81303,94.906516 161.80141,92.900703 158,91 c 0,2.141786 0,4.150103 0,6 -27.36434,0 -51.87955,0 -73,0 z"
       id="minute_hand"
       inkscape:path-effect="#path-effect5174"
       inkscape:original-d="m 85,97 h 73 v -6 l 12,6 22,3 -22,3 -12,6 v -6 H 85 v -2 h 75 v 2 l 10,-2 8,-1 -8,-1 -10,-2 v 2 H 85 Z"
       sodipodi:nodetypes="ccccccccccccccccccc"
       inkscape:label="minute_hand" />
  </g>
</svg>
