<?xml version="1.0" encoding="UTF-8" standalone="no"?>
<!-- Created with Inkscape (http://www.inkscape.org/) -->

<svg
   width="200"
   height="200"
   viewBox="0 0 200 200"
   version="1.1"
   id="svg4386"
   inkscape:version="1.2.2 (b0a8486541, 2022-12-01)"
   sodipodi:docname="minute_hand.svg"
   xmlns:inkscape="http://www.inkscape.org/namespaces/inkscape"
   xmlns:sodipodi="http://sodipodi.sourceforge.net/DTD/sodipodi-0.dtd"
   xmlns="http://www.w3.org/2000/svg"
   xmlns:svg="http://www.w3.org/2000/svg">
  <sodipodi:namedview
     id="namedview4388"
     pagecolor="#ffffff"
     bordercolor="#666666"
     borderopacity="1.0"
     inkscape:showpageshadow="2"
     inkscape:pageopacity="0.0"
     inkscape:pagecheckerboard="0"
     inkscape:deskcolor="#d1d1d1"
     inkscape:document-units="px"
     showgrid="true"
     shape-rendering="crispEdges"
     showguides="true"
     inkscape:lockguides="false"
     inkscape:zoom="10.754284"
     inkscape:cx="129.9947"
     inkscape:cy="117.44157"
     inkscape:window-width="1920"
     inkscape:window-height="1011"
     inkscape:window-x="0"
     inkscape:window-y="32"
     inkscape:window-maximized="1"
     inkscape:current-layer="layer1">
    <inkscape:grid
       type="xygrid"
       id="grid4390"
       spacingx="2"
       spacingy="2"
       color="#0000ff"
       opacity="0.35686275"
       dotted="false"
       snapvisiblegridlinesonly="true"
       originx="0"
       originy="0"
       empspacing="10"
       empcolor="#0000ff"
       empopacity="0.49803922" />
    <sodipodi:guide
       position="100,120"
       orientation="1,0"
       id="guide4408"
       inkscape:locked="false" />
    <sodipodi:guide
       position="60,100"
       orientation="0,-1"
       id="guide5136"
       inkscape:locked="false" />
  </sodipodi:namedview>
  <defs
     id="defs4383">
    <inkscape:path-effect
       effect="powerstroke"
       id="path-effect5174"
       is_visible="true"
       lpeversion="1"
       offset_points="0,0"
       not_jump="false"
       sort_points="true"
       interpolator_type="CubicBezierJohan"
       interpolator_beta="0.2"
       start_linecap_type="zerowidth"
       linejoin_type="extrp_arc"
       miter_limit="4"
       scale_width="1"
       end_linecap_type="zerowidth" />
    <inkscape:path-effect
       effect="powerstroke"
       id="path-effect243"
       is_visible="true"
       lpeversion="1"
       offset_points="0,0"
       not_jump="false"
       sort_points="true"
       interpolator_type="CubicBezierJohan"
       interpolator_beta="0.2"
       start_linecap_type="zerowidth"
       linejoin_type="extrp_arc"
       miter_limit="4"
       scale_width="1"
       end_linecap_type="zerowidth" />
  </defs>
  <g
     inkscape:label="Layer 1"
     inkscape:groupmode="layer"
     id="layer1"
     style="display:inline">
    <path
       style="fill:#000000;fill-rule:nonzero;stroke:#000000;stroke-width:1px;stroke-linecap:butt;stroke-linejoin:miter;stroke-opacity:0.810741"
       d="m 98,100 c 0.535901,-1.071797 1.215396,-2.430781 2.00001,-4 17.66923,0 37.17671,0 57.99996,0 3e-5,-1.905926 3e-5,-3.918405 3e-5,-6 3.89924,0 7.91975,0 11.99999,0 6.60407,3.302032 13.30204,6.651016 20.00001,10 -6.69797,3.34898 -13.39594,6.69797 -20,10 -4.08025,0 -8.10076,0 -12,0 0,-2.0816 0,-4.09407 0,-6 -20.82328,0 -40.33077,0 -58,0 -0.78461,-1.56922 -1.464102,-2.9282 -2,-4 z m 0,0 c 0.535898,1.0718 1.21539,2.43078 2,4 17.66923,0 37.17672,0 57.99997,0 3e-5,1.90593 3e-5,3.9184 3e-5,6 3.89924,0 7.91975,0 11.99999,0 6.60407,-3.30203 13.30204,-6.65102 20.00001,-10 -6.69797,-3.348984 -13.39594,-6.697968 -20,-10 -4.08025,0 -8.10076,0 -12,0 0,2.081595 0,4.094074 0,6 -20.82328,0 -40.33076,0 -57.99999,0 -0.784614,1.569219 -1.464109,2.928203 -2.00001,4 z"
       id="minute_hand"
       inkscape:path-effect="#path-effect5174"
       inkscape:original-d="m 98,100 2.00001,-4 H 158 v -6 h 12 l 20,10 -20,10 h -12 v -6 h -58 z"
       sodipodi:nodetypes="ccccccccccc"
       inkscape:label="minute_hand" />
  </g>
</svg>
